<svg xmlns="http://www.w3.org/2000/svg" width="24" height="24" fill="none" stroke="#fff" stroke-linecap="round" stroke-linejoin="round" stroke-width="2"><defs><linearGradient id="a" x1="0%" x2="0%" y1="0%" y2="100%"><stop offset="0%" stop-color="#02a3d9"/><stop offset="100%" stop-color="#0271c0"/></linearGradient></defs><rect width="24" height="24" fill="url(#a)" stroke="none" rx="1"/><path stroke-width="1.76" d="M4.96 5.84a.88.88 0 0 1 .88-.88h3.52a.88.88 0 0 1 .88.88v3.52a.88.88 0 0 1-.88.88H5.84a.88.88 0 0 1-.88-.88zm8.8 0a.88.88 0 0 1 .88-.88h3.52a.88.88 0 0 1 .88.88v3.52a.88.88 0 0 1-.88.88h-3.52a.88.88 0 0 1-.88-.88zm-8.8 8.8a.88.88 0 0 1 .88-.88h3.52a.88.88 0 0 1 .88.88v3.52a.88.88 0 0 1-.88.88H5.84a.88.88 0 0 1-.88-.88zm8.8-.88h2.64m2.64 0v.009m-5.28-.009v2.64m2.64 0v.009m-2.64 2.631h2.64m2.64-2.64v2.64"/></svg>